<?xml version="1.0" encoding="utf-8"?>
<!-- Generator: Adobe Illustrator 24.3.0, SVG Export Plug-In . SVG Version: 6.00 Build 0)  -->
<svg version="1.1" id="Capa_1" xmlns="http://www.w3.org/2000/svg" xmlns:xlink="http://www.w3.org/1999/xlink" x="0px" y="0px"
	 viewBox="0 0 164.4 68" style="enable-background:new 0 0 164.4 68;" xml:space="preserve">
<style type="text/css">
	.st0{enable-background:new    ;}
	.st1{fill:#000D3D;}
	.st2{fill:#7D368A;}
	.st3{fill:url(#Trazado_1330_1_);}
</style>
<g id="LogoPaco_Color_364">
	<g id="Grupo_12921" transform="translate(-14 -11.133)">
		<g id="Grupo_12919" transform="translate(194.953 51.133)">
			<g class="st0">
				<path class="st1" d="M-105.7-12.2c0-0.9,0.7-1.6,1.5-1.6c0.9,0,1.6,0.7,1.6,1.6v2.8c1.7-2.5,4.1-4.6,7.9-4.6
					c5,0,9.9,3.9,9.9,10.7v0.1c0,6.8-4.9,10.8-9.9,10.8c-3.8,0-6.3-2.1-7.9-4.4v9c0,0.9-0.6,1.6-1.5,1.6s-1.6-0.7-1.6-1.6V-12.2z
					 M-88-3.2L-88-3.2c0-5-3.4-8.1-7.3-8.1c-3.8,0-7.5,3.2-7.5,8v0.1c0,4.8,3.6,8,7.5,8C-91.2,4.8-88,1.8-88-3.2z"/>
				<path class="st1" d="M-82.7,1.1L-82.7,1.1c0-4.4,3.6-6.8,8.8-6.8c2.6,0,4.5,0.4,6.4,0.9v-0.7c0-3.7-2.3-5.6-6.2-5.6
					c-2.1,0-3.8,0.5-5.4,1.2c-0.2,0.1-0.4,0.1-0.6,0.1c-0.7,0-1.4-0.6-1.4-1.3c0-0.6,0.4-1.1,0.8-1.3c2-0.9,4.1-1.4,6.8-1.4
					c2.9,0,5.2,0.8,6.7,2.3c1.4,1.4,2.1,3.4,2.1,6V5.8c0,0.9-0.6,1.5-1.5,1.5c-0.9,0-1.5-0.6-1.5-1.4V4c-1.4,1.9-3.8,3.6-7.5,3.6
					C-78.8,7.5-82.7,5.3-82.7,1.1z M-67.4-0.5v-2C-69-2.9-71-3.4-73.5-3.4c-3.9,0-6,1.7-6,4.3V1c0,2.6,2.4,4.1,5.2,4.1
					C-70.6,5.1-67.4,2.8-67.4-0.5z"/>
			</g>
			<g class="st0">
				<path class="st2" d="M-61.2-3.1L-61.2-3.1c0-5.9,4.6-10.9,10.6-10.9c3.4,0,5.8,1.3,7.6,3c0.2,0.2,0.5,0.6,0.5,1.1
					c0,0.8-0.7,1.5-1.5,1.5c-0.4,0-0.8-0.2-1-0.4c-1.5-1.4-3.2-2.5-5.6-2.5c-4.2,0-7.4,3.6-7.4,8v0.1c0,4.5,3.3,8,7.6,8
					c2.4,0,4.2-1.1,5.8-2.5c0.2-0.2,0.5-0.4,0.9-0.4c0.8,0,1.4,0.7,1.4,1.4c0,0.4-0.2,0.7-0.4,1c-2,2-4.3,3.3-7.8,3.3
					C-56.7,7.6-61.2,2.7-61.2-3.1z"/>
				<path class="st2" d="M-41-3.1L-41-3.1C-41-9.1-36.4-14-30.2-14c6.2,0,10.8,4.9,10.8,10.7v0.1c0,5.8-4.6,10.8-10.8,10.8
					C-36.5,7.6-41,2.7-41-3.1z M-22.6-3.1L-22.6-3.1c0-4.5-3.3-8.2-7.7-8.2c-4.5,0-7.6,3.6-7.6,8v0.1c0,4.4,3.3,8,7.6,8
					C-25.7,4.8-22.6,1.2-22.6-3.1z"/>
			</g>
		</g>
		<g id="Grupo_12920" transform="translate(126 45.133)">
			<g id="Grupo_11559" transform="translate(0 0)">
				<g id="Grupo_10490" transform="translate(0)">
					<g id="Grupo_10489">
						<g id="Grupo_10488">
							
								<linearGradient id="Trazado_1330_1_" gradientUnits="userSpaceOnUse" x1="-1431.0837" y1="419.702" x2="-1429.5387" y2="418.635" gradientTransform="matrix(47.2346 0 0 -61.8452 67466.375 25923.4219)">
								<stop  offset="0" style="stop-color:#071D55"/>
								<stop  offset="0.2" style="stop-color:#0078BC"/>
								<stop  offset="0.228" style="stop-color:#156CB3"/>
								<stop  offset="0.283" style="stop-color:#3A59A4"/>
								<stop  offset="0.339" style="stop-color:#574998"/>
								<stop  offset="0.394" style="stop-color:#6C3E90"/>
								<stop  offset="0.448" style="stop-color:#78388B"/>
								<stop  offset="0.5" style="stop-color:#7D368A"/>
								<stop  offset="0.559" style="stop-color:#78368A"/>
								<stop  offset="0.621" style="stop-color:#6C398C"/>
								<stop  offset="0.684" style="stop-color:#573E90"/>
								<stop  offset="0.746" style="stop-color:#3A4494"/>
								<stop  offset="0.8" style="stop-color:#1C4B9A"/>
								<stop  offset="0.972" style="stop-color:#04164A"/>
								<stop  offset="1" style="stop-color:#000D3D"/>
							</linearGradient>
							<path id="Trazado_1330" class="st3" d="M-71.2,30.9h-28.6c-5.1,0-9.3-4.2-9.3-9.3v-29c0-1.1,0.4-2.1,1.2-2.9l19.5-19.5
								c1.6-1.6,4.2-1.6,5.8,0c0,0,0,0,0,0l19.5,19.5c0.9,1,1.4,2.4,1.2,3.7v29c-0.1,2.3-1.1,4.4-2.8,5.9
								C-66.4,30-68.8,30.9-71.2,30.9z M-85.5-27.7c-0.2,0-0.4,0.1-0.6,0.2l-19.5,19.5c-0.2,0.2-0.2,0.4-0.2,0.6v29c0,3.3,2.7,6,6,6
								h28.6c3.4,0,6-2.8,6-5.2v-29c0-1.2-0.2-1.4-0.2-1.4l-19.5-19.5C-85.1-27.6-85.3-27.7-85.5-27.7z"/>
						</g>
					</g>
					<path id="Trazado_1331" class="st2" d="M-74.5,20l-2-4.6c0.4-0.9,0.6-1.9,0.6-2.9l0,0c0-0.2,0-0.8,0-3.9
						c0.1-0.9-0.6-1.7-1.5-1.7s-1.7,0.6-1.7,1.5c0,0.1,0,0.2,0,0.3v3.6c-0.1,0.9-0.3,1.7-0.6,2.6c-0.2,0.4-0.2,0.9,0,1.3l0.7,1.5
						l-1-0.4c-0.5-0.2-1.2-0.1-1.6,0.2c-3.1,2.5-7.6,2.1-10.2-1c-1-1.2-1.5-2.6-1.6-4.1c0-0.1,0-0.8,0-3.7c0.1-0.9-0.6-1.7-1.5-1.7
						s-1.7,0.6-1.7,1.5c0,0.1,0,0.2,0,0.3c0,3.1,0,3.7,0,3.9l0,0c0.4,5.5,4.9,9.7,10.4,9.7c0.2,0,0.5,0,0.7,0
						c1.9,0.2,3.8-0.5,5.1-1.7l3.8,1.6c0.8,0.3,1.7,0,2.1-0.8C-74.4,20.8-74.4,20.4-74.5,20L-74.5,20z"/>
				</g>
			</g>
		</g>
	</g>
</g>
</svg>
