<?xml version="1.0" encoding="utf-8"?>
<!-- Generator: Adobe Illustrator 24.3.0, SVG Export Plug-In . SVG Version: 6.00 Build 0)  -->
<svg version="1.1" id="Capa_1" xmlns="http://www.w3.org/2000/svg" xmlns:xlink="http://www.w3.org/1999/xlink" x="0px" y="0px"
	 viewBox="0 0 161.6 68" style="enable-background:new 0 0 161.6 68;" xml:space="preserve">
<style type="text/css">
	.st0{enable-background:new    ;}
	.st1{fill:#FFFFFF;}
</style>
<g id="LogoPaco_Blanco_364">
	<g id="Grupo_12921" transform="translate(-14 -11.133)">
		<g id="Grupo_12919" transform="translate(194.953 51.133)">
			<g class="st0">
				<path class="st1" d="M-107.1-12.2c0-0.9,0.7-1.6,1.5-1.6c0.9,0,1.6,0.7,1.6,1.6v2.8c1.7-2.5,4.1-4.6,7.9-4.6
					c5,0,9.9,3.9,9.9,10.7v0.1c0,6.8-4.9,10.8-9.9,10.8c-3.8,0-6.3-2.1-7.9-4.4v9c0,0.9-0.6,1.6-1.5,1.6s-1.6-0.7-1.6-1.6V-12.2z
					 M-89.4-3.2L-89.4-3.2c0-5-3.4-8.1-7.3-8.1c-3.8,0-7.5,3.2-7.5,8v0.1c0,4.8,3.6,8,7.5,8C-92.6,4.8-89.4,1.8-89.4-3.2z"/>
				<path class="st1" d="M-84.1,1.1L-84.1,1.1c0-4.4,3.6-6.8,8.8-6.8c2.6,0,4.5,0.4,6.4,0.9v-0.7c0-3.7-2.3-5.6-6.2-5.6
					c-2.1,0-3.8,0.5-5.4,1.2c-0.2,0.1-0.4,0.1-0.6,0.1c-0.7,0-1.4-0.6-1.4-1.3c0-0.6,0.4-1.1,0.8-1.3c2-0.9,4.1-1.4,6.8-1.4
					c2.9,0,5.2,0.8,6.7,2.3c1.4,1.4,2.1,3.4,2.1,6V5.8c0,0.9-0.6,1.5-1.5,1.5c-0.9,0-1.5-0.6-1.5-1.4V4c-1.4,1.9-3.8,3.6-7.5,3.6
					C-80.2,7.5-84.1,5.3-84.1,1.1z M-68.8-0.5v-2c-1.5-0.4-3.6-0.9-6.1-0.9c-3.9,0-6,1.7-6,4.3V1c0,2.6,2.4,4.1,5.2,4.1
					C-72,5.1-68.8,2.8-68.8-0.5z"/>
				<path class="st1" d="M-62.6-3.1L-62.6-3.1C-62.6-9.1-58.1-14-52-14c3.4,0,5.8,1.3,7.6,3c0.2,0.2,0.5,0.6,0.5,1.1
					c0,0.8-0.7,1.5-1.5,1.5c-0.4,0-0.8-0.2-1-0.4c-1.5-1.4-3.2-2.5-5.6-2.5c-4.2,0-7.4,3.6-7.4,8v0.1c0,4.5,3.3,8,7.6,8
					c2.4,0,4.2-1.1,5.8-2.5c0.2-0.2,0.5-0.4,0.9-0.4c0.8,0,1.4,0.7,1.4,1.4c0,0.4-0.2,0.7-0.4,1c-2,2-4.3,3.3-7.8,3.3
					C-58.1,7.6-62.6,2.7-62.6-3.1z"/>
				<path class="st1" d="M-42.4-3.1L-42.4-3.1c0-5.9,4.6-10.9,10.8-10.9c6.2,0,10.8,4.9,10.8,10.7v0.1c0,5.8-4.6,10.8-10.8,10.8
					C-37.9,7.6-42.4,2.7-42.4-3.1z M-24-3.1L-24-3.1c0-4.5-3.3-8.2-7.7-8.2c-4.5,0-7.6,3.6-7.6,8v0.1c0,4.4,3.3,8,7.6,8
					C-27.1,4.8-24,1.2-24-3.1z"/>
			</g>
		</g>
		<g id="Grupo_12920" transform="translate(126 45.133)">
			<g id="Grupo_11559" transform="translate(0 0)">
				<g id="Grupo_10490" transform="translate(0)">
					<g id="Grupo_10489">
						<g id="Grupo_10488">
							<path id="Trazado_1330" class="st1" d="M-72.6,30.9h-28.6c-5.1,0-9.3-4.2-9.3-9.3v-29c0-1.1,0.4-2.1,1.2-2.9l19.5-19.5
								c1.6-1.6,4.2-1.6,5.8,0c0,0,0,0,0,0l19.5,19.5c0.9,1,1.4,2.4,1.2,3.7v29c-0.1,2.3-1.1,4.4-2.8,5.9
								C-67.9,30-70.2,30.9-72.6,30.9z M-86.9-27.7c-0.2,0-0.4,0.1-0.6,0.2L-107-7.9c-0.2,0.2-0.2,0.4-0.2,0.6v29c0,3.3,2.7,6,6,6
								h28.6c3.4,0,6-2.8,6-5.2v-29c0-1.2-0.2-1.4-0.2-1.4l-19.5-19.5C-86.5-27.6-86.7-27.7-86.9-27.7z"/>
						</g>
					</g>
					<path id="Trazado_1331" class="st1" d="M-75.9,20l-2-4.6c0.4-0.9,0.6-1.9,0.6-2.9l0,0c0-0.2,0-0.8,0-3.9
						c0.1-0.9-0.6-1.7-1.5-1.7s-1.7,0.6-1.7,1.5c0,0.1,0,0.2,0,0.3v3.6c-0.1,0.9-0.3,1.7-0.6,2.6c-0.2,0.4-0.2,0.9,0,1.3l0.7,1.5
						l-1-0.4c-0.5-0.2-1.2-0.1-1.6,0.2c-3.1,2.5-7.6,2.1-10.2-1c-1-1.2-1.5-2.6-1.6-4.1c0-0.1,0-0.8,0-3.7c0.1-0.9-0.6-1.7-1.5-1.7
						S-98,7.5-98,8.3c0,0.1,0,0.2,0,0.3c0,3.1,0,3.7,0,3.9l0,0c0.4,5.5,4.9,9.7,10.4,9.7c0.2,0,0.5,0,0.7,0c1.9,0.2,3.8-0.5,5.1-1.7
						l3.8,1.6c0.8,0.3,1.7,0,2.1-0.8C-75.8,20.8-75.8,20.4-75.9,20L-75.9,20z"/>
				</g>
			</g>
		</g>
	</g>
</g>
</svg>
