<?xml version="1.0" encoding="utf-8"?>
<!-- Generator: Adobe Illustrator 24.3.0, SVG Export Plug-In . SVG Version: 6.00 Build 0)  -->
<svg version="1.1" id="Capa_1" xmlns="http://www.w3.org/2000/svg" xmlns:xlink="http://www.w3.org/1999/xlink" x="0px" y="0px"
	 viewBox="0 0 297.6 141.7" style="enable-background:new 0 0 297.6 141.7;" xml:space="preserve">
<style type="text/css">
	.st0{enable-background:new    ;}
	.st1{fill:#000D3D;}
	.st2{fill:#7D368A;}
	.st3{fill:url(#Trazado_1330_1_);}
</style>
<g id="LogoPaco_Color">
	<g id="Grupo_12919" transform="translate(-434.815 -259.519)">
		<g class="st0">
			<path class="st1" d="M586.1,331.1c0-1.4,1.1-2.5,2.4-2.5c1.4,0,2.5,1.1,2.5,2.5v4.5c2.7-4,6.6-7.4,12.7-7.4
				c7.9,0,15.8,6.3,15.8,17.2v0.1c0,10.8-7.8,17.2-15.8,17.2c-6.1,0-10.1-3.3-12.7-7V370c0,1.4-1,2.5-2.4,2.5s-2.5-1.1-2.5-2.5
				V331.1z M614.4,345.5v-0.1c0-7.8-5.4-12.8-11.6-12.8c-6.1,0-12,5.2-12,12.7v0.1c0,7.7,5.8,12.8,12,12.8
				C609.2,358.3,614.4,353.5,614.4,345.5z"/>
			<path class="st1" d="M622.9,352.4v-0.1c0-7,5.8-10.7,14.1-10.7c4.2,0,7.2,0.6,10.2,1.4v-1.2c0-6-3.6-9-9.9-9
				c-3.3,0-6.1,0.8-8.6,1.9c-0.3,0.1-0.6,0.2-0.9,0.2c-1.2,0-2.2-1-2.2-2.1c0-1,0.7-1.8,1.3-2c3.3-1.4,6.6-2.2,10.8-2.2
				c4.7,0,8.3,1.2,10.7,3.6c2.2,2.2,3.4,5.4,3.4,9.7v18.1c0,1.4-1,2.4-2.4,2.4c-1.4,0-2.4-1-2.4-2.3v-3c-2.3,3-6.1,5.7-12,5.7
				C629.1,362.7,622.9,359.2,622.9,352.4z M647.3,349.8v-3.2c-2.4-0.7-5.7-1.4-9.7-1.4c-6.2,0-9.7,2.7-9.7,6.8v0.1
				c0,4.2,3.8,6.6,8.3,6.6C642.3,358.8,647.3,355.1,647.3,349.8z"/>
		</g>
		<g class="st0">
			<path class="st2" d="M657.2,345.6v-0.1c0-9.3,7.3-17.3,17-17.3c5.5,0,9.2,2.1,12.2,4.8c0.4,0.3,0.8,1,0.8,1.7
				c0,1.3-1.1,2.4-2.4,2.4c-0.6,0-1.2-0.3-1.6-0.6c-2.4-2.2-5.1-4-9-4c-6.7,0-11.8,5.7-11.8,12.8v0.1c0,7.2,5.2,12.9,12.2,12.9
				c3.8,0,6.8-1.7,9.2-4c0.3-0.3,0.8-0.6,1.4-0.6c1.2,0,2.2,1.1,2.2,2.2c0,0.6-0.3,1.2-0.6,1.5c-3.1,3.1-6.9,5.3-12.5,5.3
				C664.5,362.7,657.2,354.9,657.2,345.6z"/>
			<path class="st2" d="M689.6,345.6v-0.1c0-9.3,7.3-17.3,17.3-17.3c9.9,0,17.2,7.8,17.2,17.2v0.1c0,9.3-7.4,17.3-17.3,17.3
				C696.8,362.7,689.6,354.9,689.6,345.6z M719,345.6v-0.1c0-7.1-5.3-12.9-12.3-12.9c-7.2,0-12.1,5.8-12.1,12.8v0.1
				c0,7.1,5.2,12.9,12.2,12.9C714,358.3,719,352.6,719,345.6z"/>
		</g>
	</g>
	<g id="Grupo_12920" transform="translate(116 206)">
		<g id="Grupo_11559" transform="translate(2 1)">
			<g id="Grupo_10490" transform="translate(-13 -174.867)">
				<g id="Grupo_10489">
					<g id="Grupo_10488">
						
							<linearGradient id="Trazado_1330_1_" gradientUnits="userSpaceOnUse" x1="-1358.4534" y1="460.8812" x2="-1356.9084" y2="459.8141" gradientTransform="matrix(104.056 0 0 -136.3432 141207.3906 62803.6602)">
							<stop  offset="0" style="stop-color:#071D55"/>
							<stop  offset="0.2" style="stop-color:#0078BC"/>
							<stop  offset="0.228" style="stop-color:#156CB3"/>
							<stop  offset="0.283" style="stop-color:#3A59A4"/>
							<stop  offset="0.339" style="stop-color:#574998"/>
							<stop  offset="0.394" style="stop-color:#6C3E90"/>
							<stop  offset="0.448" style="stop-color:#78388B"/>
							<stop  offset="0.5" style="stop-color:#7D368A"/>
							<stop  offset="0.559" style="stop-color:#78368A"/>
							<stop  offset="0.621" style="stop-color:#6C398C"/>
							<stop  offset="0.684" style="stop-color:#573E90"/>
							<stop  offset="0.746" style="stop-color:#3A4494"/>
							<stop  offset="0.8" style="stop-color:#1C4B9A"/>
							<stop  offset="0.972" style="stop-color:#04164A"/>
							<stop  offset="1" style="stop-color:#000D3D"/>
						</linearGradient>
						<path id="Trazado_1330" class="st3" d="M-17.6,106.9h-63.1c-11.3,0-20.5-9.2-20.5-20.5V22.6c0-2.4,0.9-4.7,2.6-6.4l43-43
							c3.5-3.5,9.2-3.5,12.7,0c0,0,0,0,0,0l43,43c1.9,1.9,2.6,4.3,2.6,8.3v63.8c-0.2,5-2.4,9.6-6.1,12.9
							C-7.1,104.9-12.3,106.9-17.6,106.9z M-49.2-22.3c-0.5,0-1,0.2-1.3,0.5l-43,43c-0.3,0.3-0.5,0.8-0.5,1.3v63.8
							c0,7.3,6,13.3,13.3,13.3h63.1c7.5,0,13.3-6.1,13.3-11.4V24.5c0-2.7-0.4-3.1-0.5-3.2l-43-43C-48.2-22.1-48.7-22.3-49.2-22.3z"
							/>
					</g>
				</g>
				<path id="Trazado_1331" class="st2" d="M-24.9,82.8l-4.3-10.1c0.8-2.1,1.2-4.2,1.4-6.4l0,0c0-0.4,0.1-1.8,0.1-8.6
					c0.1-1.9-1.4-3.6-3.4-3.6c-1.9-0.1-3.6,1.4-3.6,3.4c0,0.1,0,0.2,0,0.3v8c-0.1,1.9-0.6,3.9-1.4,5.6c-0.4,0.9-0.4,1.9,0,2.8
					l1.5,3.4l-2.3-1c-1.2-0.5-2.6-0.3-3.6,0.5c-6.8,5.6-16.8,4.6-22.4-2.3c-2.1-2.6-3.3-5.7-3.6-9c0-0.3,0-1.7,0-8.1
					c0.1-1.9-1.5-3.6-3.4-3.6c-1.9-0.1-3.6,1.5-3.6,3.4c0,0.1,0,0.2,0,0.2c0,6.8,0,8.2,0,8.5l0,0c0.7,11.9,10.6,21.2,22.8,21.5
					c0.5,0,1,0,1.6,0c4,0,8.1-0.5,11.3-3.8l8.3,3.5c1.8,0.8,3.8-0.1,4.6-1.8C-24.6,84.6-24.6,83.6-24.9,82.8z"/>
			</g>
		</g>
	</g>
</g>
</svg>
