<svg xmlns="http://www.w3.org/2000/svg" xmlns:xlink="http://www.w3.org/1999/xlink" width="500" height="200" viewBox="0 0 500 200">
  <defs>
    <clipPath id="clip-Logo">
      <rect width="500" height="200"/>
    </clipPath>
  </defs>
  <g id="Logo" clip-path="url(#clip-Logo)">
    <g id="Grupo_10458" data-name="Grupo 10458" transform="translate(-472.815 -255.519)">
      <text id="unidapp" transform="translate(673.978 387.253)" fill="#fff" font-size="61" font-family="GothamRounded-Book, Gotham Rounded" letter-spacing="-0.05em"><tspan x="0" y="0">unidapp</tspan></text>
      <g id="Grupo_67" data-name="Grupo 67" transform="translate(540.815 291.519)">
        <g id="Grupo_66" data-name="Grupo 66">
          <g id="Grupo_65" data-name="Grupo 65">
            <path id="Trazado_57" data-name="Trazado 57" d="M631.948,404.516H572.6a19.267,19.267,0,0,1-19.244-19.244V325.245a8.418,8.418,0,0,1,2.484-5.994l40.44-40.438a8.475,8.475,0,0,1,11.987,0l40.44,40.44c1.763,1.761,2.483,4.012,2.483,7.772V387.05a16.842,16.842,0,0,1-5.734,12.146A19.89,19.89,0,0,1,631.948,404.516ZM602.275,283.077a1.713,1.713,0,0,0-1.219.506l-40.443,40.441a1.714,1.714,0,0,0-.506,1.221v60.028A12.51,12.51,0,0,0,572.6,397.767h59.346c7.038,0,12.5-5.761,12.5-10.717V327.023c0-2.494-.38-2.873-.505-3L603.5,283.584A1.717,1.717,0,0,0,602.275,283.077Z" transform="translate(-553.358 -276.329)" fill="#fff"/>
          </g>
        </g>
        <path id="Trazado_58" data-name="Trazado 58" d="M615.323,352.4l-4.044-9.458a21.385,21.385,0,0,0,1.309-6.052h0c.024-.354.051-1.718.069-8.108a3.307,3.307,0,1,0-6.61,0l0,7.53a14.858,14.858,0,0,1-1.32,5.294,3.3,3.3,0,0,0-.029,2.649l1.371,3.206-2.137-.91a3.272,3.272,0,0,0-3.366.478A14.974,14.974,0,0,1,576.148,336.4c0-.3,0-1.587.008-7.617a3.307,3.307,0,1,0-6.61,0c.013,6.439.029,7.689.044,7.986h0a21.719,21.719,0,0,0,21.481,20.2c.488.013.977.023,1.467.023,3.775,0,7.59-.512,10.669-3.614l7.808,3.329a3.284,3.284,0,0,0,4.308-4.311Z" transform="translate(-543.648 -246.921)" fill="#fff"/>
      </g>
    </g>
  </g>
</svg>
