<?xml version="1.0" encoding="utf-8"?>
<!-- Generator: Adobe Illustrator 24.2.3, SVG Export Plug-In . SVG Version: 6.00 Build 0)  -->
<svg version="1.1" id="Capa_1" xmlns="http://www.w3.org/2000/svg" xmlns:xlink="http://www.w3.org/1999/xlink" x="0px" y="0px"
	 viewBox="0 0 1169 512" style="enable-background:new 0 0 1169 512;" xml:space="preserve">
<style type="text/css">
	.st0{fill:#000D3D;}
	.st1{font-family:'GothamRounded-Book';}
	.st2{font-size:216.3576px;}
	.st3{letter-spacing:-10;}
	.st4{fill:#7D368A;}
	.st5{fill:url(#Trazado_1330_1_);}
</style>
<g id="Grupo_11559" transform="translate(0 0)">
	<text transform="matrix(1 0 0 1 329.5486 329.8889)" class="st0 st1 st2 st3">unid</text>
	<text transform="matrix(1 0 0 1 753.386 329.8889)" class="st4 st1 st2 st3">app</text>
	<g id="Grupo_10490">
		<g id="Grupo_10489">
			<g id="Grupo_10488">
				
					<linearGradient id="Trazado_1330_1_" gradientUnits="userSpaceOnUse" x1="-305.2042" y1="885.187" x2="-290.0099" y2="874.6937" gradientTransform="matrix(22.1281 0 0 -28.9743 6691.3516 25750.9434)">
					<stop  offset="0" style="stop-color:#071D55"/>
					<stop  offset="0.2" style="stop-color:#0078BC"/>
					<stop  offset="0.228" style="stop-color:#156CB3"/>
					<stop  offset="0.283" style="stop-color:#3A59A4"/>
					<stop  offset="0.339" style="stop-color:#574998"/>
					<stop  offset="0.394" style="stop-color:#6C3E90"/>
					<stop  offset="0.448" style="stop-color:#78388B"/>
					<stop  offset="0.5" style="stop-color:#7D368A"/>
					<stop  offset="0.559" style="stop-color:#78368A"/>
					<stop  offset="0.621" style="stop-color:#6C398C"/>
					<stop  offset="0.684" style="stop-color:#573E90"/>
					<stop  offset="0.746" style="stop-color:#3A4494"/>
					<stop  offset="0.8" style="stop-color:#1C4B9A"/>
					<stop  offset="0.972" style="stop-color:#04164A"/>
					<stop  offset="1" style="stop-color:#000D3D"/>
				</linearGradient>
				<path id="Trazado_1330" class="st5" d="M210.2,398.5H78.3c-23.6,0-42.8-19.2-42.8-42.8V222.3c0-5,2-9.8,5.5-13.3l89.9-89.9
					c7.4-7.4,19.3-7.4,26.6,0c0,0,0,0,0,0l89.9,89.9c4.2,4.7,6.2,11,5.5,17.3v133.4c-0.3,10.4-5,20.2-12.8,27
					C232,394.2,221.3,398.4,210.2,398.5z M144.2,128.5c-1,0-2,0.4-2.7,1.1l-89.9,89.9c-0.7,0.7-1.1,1.7-1.1,2.7v133.4
					c0,15.3,12.4,27.8,27.8,27.8h131.9c14,0.3,26-10,27.8-23.8V226.2c0-5.5-0.8-6.4-1.1-6.7l-89.9-89.9
					C146.2,128.9,145.3,128.5,144.2,128.5z"/>
			</g>
		</g>
		<path id="Trazado_1331" class="st4" d="M194.8,348l-9-21c1.6-4.3,2.6-8.8,3-13.5l0,0c0-0.8,0.1-3.8,0.2-18c0.2-4.1-2.9-7.5-7-7.7
			c-4.1-0.2-7.5,2.9-7.7,7c0,0.3,0,0.5,0,0.8v16.7c-0.2,4.1-1.2,8.1-3,11.8c-0.8,1.9-0.9,4-0.1,5.9l3,7.1l-4.8-2
			c-2.5-1.1-5.4-0.7-7.5,1.1c-14.2,11.6-35.2,9.5-46.8-4.7c-4.4-5.4-7-12-7.4-18.9c0-0.7,0-3.5,0-16.9c0.2-4.1-2.9-7.5-7-7.7
			c-4.1-0.2-7.5,2.9-7.7,7c0,0.3,0,0.5,0,0.8c0,14.3,0.1,17.1,0.1,17.8l0,0c1.8,25.1,22.6,44.7,47.7,44.9c1.1,0,2.2,0,3.3,0
			c8.7,0.8,17.3-2.1,23.7-8l17.4,7.4c3.7,1.6,8-0.1,9.6-3.8C195.6,351.9,195.6,349.8,194.8,348L194.8,348z"/>
	</g>
</g>
</svg>
