<?xml version="1.0" encoding="utf-8"?>
<!-- Generator: Adobe Illustrator 24.3.0, SVG Export Plug-In . SVG Version: 6.00 Build 0)  -->
<svg version="1.1" id="Capa_1" xmlns="http://www.w3.org/2000/svg" xmlns:xlink="http://www.w3.org/1999/xlink" x="0px" y="0px"
	 viewBox="0 0 289.1 141.7" style="enable-background:new 0 0 289.1 141.7;" xml:space="preserve">
<style type="text/css">
	.st0{enable-background:new    ;}
	.st1{fill:#FFFFFF;}
</style>
<g id="LogoPaco_Blanco">
	<g id="Grupo_12919" transform="translate(-434.815 -259.519)">
		<g class="st0">
			<path class="st1" d="M583.6,331.5c0-1.4,1.1-2.5,2.4-2.5c1.4,0,2.5,1.1,2.5,2.5v4.5c2.7-4,6.6-7.4,12.7-7.4
				c7.9,0,15.8,6.3,15.8,17.2v0.1c0,10.8-7.8,17.2-15.8,17.2c-6.1,0-10.1-3.3-12.7-7v14.4c0,1.4-1,2.5-2.4,2.5s-2.5-1.1-2.5-2.5
				V331.5z M612,346v-0.1c0-7.8-5.4-12.8-11.6-12.8c-6.1,0-12,5.2-12,12.7v0.1c0,7.7,5.8,12.8,12,12.8C606.7,358.7,612,354,612,346z
				"/>
			<path class="st1" d="M620.4,352.8v-0.1c0-7,5.8-10.7,14.1-10.7c4.2,0,7.2,0.6,10.2,1.4v-1.2c0-6-3.6-9-9.9-9
				c-3.3,0-6.1,0.8-8.6,1.9c-0.3,0.1-0.6,0.2-0.9,0.2c-1.2,0-2.2-1-2.2-2.1c0-1,0.7-1.8,1.3-2c3.3-1.4,6.6-2.2,10.8-2.2
				c4.7,0,8.3,1.2,10.7,3.6c2.2,2.2,3.4,5.4,3.4,9.7v18.1c0,1.4-1,2.4-2.4,2.4c-1.4,0-2.4-1-2.4-2.3v-3c-2.3,3-6.1,5.7-12,5.7
				C626.6,363.1,620.4,359.6,620.4,352.8z M644.8,350.3v-3.2c-2.4-0.7-5.7-1.4-9.7-1.4c-6.2,0-9.7,2.7-9.7,6.8v0.1
				c0,4.2,3.8,6.6,8.3,6.6C639.8,359.2,644.8,355.5,644.8,350.3z"/>
			<path class="st1" d="M654.7,346v-0.1c0-9.3,7.3-17.3,17-17.3c5.5,0,9.2,2.1,12.2,4.8c0.4,0.3,0.8,1,0.8,1.7
				c0,1.3-1.1,2.4-2.4,2.4c-0.6,0-1.2-0.3-1.6-0.6c-2.4-2.2-5.1-4-9-4c-6.7,0-11.8,5.7-11.8,12.8v0.1c0,7.2,5.2,12.9,12.2,12.9
				c3.8,0,6.8-1.7,9.2-4c0.3-0.3,0.8-0.6,1.4-0.6c1.2,0,2.2,1.1,2.2,2.2c0,0.6-0.3,1.2-0.6,1.5c-3.1,3.1-6.9,5.3-12.5,5.3
				C662,363.2,654.7,355.3,654.7,346z"/>
			<path class="st1" d="M687.1,346v-0.1c0-9.3,7.3-17.3,17.3-17.3c9.9,0,17.2,7.8,17.2,17.2v0.1c0,9.3-7.4,17.3-17.3,17.3
				C694.3,363.2,687.1,355.4,687.1,346z M716.5,346v-0.1c0-7.1-5.3-12.9-12.3-12.9c-7.2,0-12.1,5.8-12.1,12.8v0.1
				c0,7.1,5.2,12.9,12.2,12.9C711.5,358.8,716.5,353,716.5,346z"/>
		</g>
		<g id="Grupo_67" transform="translate(540.815 291.519)">
			<g id="Grupo_66">
				<g id="Grupo_65">
					<path id="Trazado_57" class="st1" d="M-20.5,106.7h-62.8c-11.2,0-20.4-9.1-20.4-20.4V22.8c0-2.4,0.9-4.7,2.6-6.3l42.8-42.8
						c3.5-3.5,9.2-3.5,12.7,0c0,0,0,0,0,0l42.8,42.8c1.9,1.9,2.6,4.2,2.6,8.2v63.5c-0.2,4.9-2.4,9.6-6.1,12.9
						C-10.1,104.7-15.2,106.7-20.5,106.7z M-51.9-21.8c-0.5,0-0.9,0.2-1.3,0.5L-96,21.5c-0.3,0.3-0.5,0.8-0.5,1.3v63.5
						c0,7.3,5.9,13.2,13.2,13.2h62.8c7.4,0,13.2-6.1,13.2-11.3V24.7c0-2.6-0.4-3-0.5-3.2l-42.8-42.8C-50.9-21.6-51.4-21.8-51.9-21.8
						z"/>
				</g>
			</g>
			<path id="Trazado_58" class="st1" d="M-27.8,82.7l-4.3-10c0.8-2.1,1.2-4.2,1.4-6.4l0,0c0-0.4,0.1-1.8,0.1-8.6
				c0-1.9-1.6-3.5-3.5-3.5s-3.5,1.6-3.5,3.5v8c-0.1,1.9-0.6,3.8-1.4,5.6c-0.4,0.9-0.4,1.9,0,2.8l1.5,3.4l-2.3-1
				c-1.2-0.5-2.6-0.3-3.6,0.5c-6.8,5.5-16.8,4.5-22.3-2.2c-2.1-2.6-3.3-5.7-3.5-9c0-0.3,0-1.7,0-8.1c0-1.9-1.6-3.5-3.5-3.5
				s-3.5,1.6-3.5,3.5c0,6.8,0,8.1,0,8.5l0,0c0.7,11.9,10.5,21.1,22.7,21.4c0.5,0,1,0,1.6,0c4,0,8-0.5,11.3-3.8l8.3,3.5
				c1.8,0.8,3.8-0.1,4.6-1.8C-27.4,84.5-27.4,83.5-27.8,82.7L-27.8,82.7z"/>
		</g>
	</g>
</g>
</svg>
